<svg xmlns="http://www.w3.org/2000/svg" viewBox="0 0 640 420">
  <defs><linearGradient id="bg" x2="1" y2="1"><stop stop-color="#fff8f2"/><stop offset="1" stop-color="#f4e2e8"/></linearGradient><filter id="s"><feDropShadow dx="0" dy="12" stdDeviation="10" flood-color="#5d4037" flood-opacity=".2"/></filter></defs>
  <rect width="640" height="420" rx="28" fill="url(#bg)"/><circle cx="535" cy="75" r="110" fill="#8e5a50" opacity=".07"/><circle cx="90" cy="335" r="105" fill="#ff007f" opacity=".08"/>
  <g filter="url(#s)"><g transform="rotate(-12 270 210)"><rect x="155" y="87" width="220" height="270" rx="8" fill="#fff" stroke="#e0cdc5" stroke-width="3"/><path d="M155 95q0-8 8-8h204q8 0 8 8v82H155z" fill="#ff007f"/><text x="265" y="133" text-anchor="middle" fill="#fff" font-family="Arial,sans-serif" font-size="25" font-weight="bold">NOVIDADE</text><text x="265" y="157" text-anchor="middle" fill="#ffe8f1" font-family="Arial,sans-serif" font-size="14">CONHEÇA E APROVEITE</text><circle cx="265" cy="225" r="32" fill="#f4e2e8"/><path d="M250 225h30m-15-15v30" stroke="#c9567f" stroke-width="4" stroke-linecap="round"/><rect x="190" y="277" width="150" height="8" rx="4" fill="#8e5a50"/><rect x="203" y="297" width="124" height="6" rx="3" fill="#d9c8bd"/></g><g transform="rotate(9 405 212)"><rect x="365" y="119" width="130" height="200" rx="8" fill="#5d4037"/><rect x="375" y="129" width="110" height="180" rx="5" fill="#fff8f2"/><path d="M375 134q0-5 5-5h100v66H375z" fill="#e894b4"/><rect x="390" y="215" width="80" height="6" rx="3" fill="#8e5a50"/><rect x="390" y="231" width="67" height="5" rx="2" fill="#d9c8bd"/><rect x="390" y="251" width="80" height="6" rx="3" fill="#8e5a50"/><rect x="390" y="267" width="60" height="5" rx="2" fill="#d9c8bd"/></g></g>
  <text x="320" y="397" text-anchor="middle" fill="#8e5a50" font-family="Arial,sans-serif" font-size="18" letter-spacing="3">DIVULGUE SUA MARCA</text>
</svg>
