<svg xmlns="http://www.w3.org/2000/svg" viewBox="0 0 640 420">
  <defs><linearGradient id="bg" x2="1" y2="1"><stop stop-color="#fff8f2"/><stop offset="1" stop-color="#efe3d5"/></linearGradient><filter id="s"><feDropShadow dx="0" dy="12" stdDeviation="10" flood-color="#5d4037" flood-opacity=".2"/></filter></defs>
  <rect width="640" height="420" rx="28" fill="url(#bg)"/><circle cx="540" cy="82" r="100" fill="#ff007f" opacity=".08"/><path d="M0 350q170-115 330-20t310-16v106H0z" fill="#8e5a50" opacity=".06"/>
  <g filter="url(#s)" transform="rotate(-8 320 210)"><rect x="160" y="80" width="220" height="270" rx="17" fill="#c9567f"/><rect x="180" y="67" width="260" height="296" rx="14" fill="#fffaf6" stroke="#e1d1c9" stroke-width="3"/><path d="M180 81q0-14 14-14h232q14 0 14 14v86H180z" fill="#ff007f"/><text x="310" y="119" text-anchor="middle" fill="#fff" font-family="Georgia,serif" font-size="26" font-weight="bold">IDEIAS</text><text x="310" y="145" text-anchor="middle" fill="#ffe8f1" font-family="Arial,sans-serif" font-size="14">EM MOVIMENTO</text><path d="M220 207h180M220 239h180M220 271h180M220 303h180M220 335h180" stroke="#dfd0c9" stroke-width="3"/><path d="M196 70v286" stroke="#e6c5d1" stroke-width="4"/><circle cx="205" cy="91" r="4" fill="#c9567f"/><circle cx="205" cy="123" r="4" fill="#c9567f"/><circle cx="205" cy="155" r="4" fill="#c9567f"/></g>
  <text x="320" y="397" text-anchor="middle" fill="#8e5a50" font-family="Arial,sans-serif" font-size="18" letter-spacing="3">PAPELARIA PERSONALIZADA</text>
</svg>
